<svg enable-background="new 0 0 140 140" height="512" viewBox="0 0 140 140" width="512" xmlns="http://www.w3.org/2000/svg"><circle cx="70" cy="70" fill="#4abba4" r="64"/><path d="m134.0000153 69.9998016c0-.9482422-.0306396-1.8891602-.0714722-2.8276367l-33.5942459-33.5942345c-.0006104-.0004883-.0012817-.0009766-.0018921-.0019531l-.0036011-.003418h-.0004883c-.9058838-.9018555-2.1560059-1.4604492-3.5386353-1.4604492h-53.5999717c-2.75 0-4.9900513 2.2299805-4.9900513 4.9897461v65.7900391c0 1.2856445.4997559 2.4467773 1.2969971 3.3330078l-.0071411.0107422.0911865.0908203c.0601196.0634766.1210327.1245117.1843872.1845703l27.4177818 27.4179688c.9348145.0400391 1.8723145.0708008 2.8171387.0708008 35.3463135-.0000039 64.0000077-28.6538125 64.0000077-64.0000039z" opacity=".1"/><path d="m96.7945709 32.1097412h-49.9917068c-2.7582664 0-4.9942741 2.2360077-4.9942741 4.9944v65.7917175c0 2.7583923 2.2360077 4.9944 4.9942741 4.9944h49.9917068c2.7650528 0 5.0065689-2.2416382 5.0065689-5.006691v-65.7671355c0-2.765049-2.2415161-5.006691-5.0065689-5.006691z" fill="#fed35b"/><path d="m95.2901688 33.5658798h-48.0705033c-2.6522636 0-4.8023415 2.1500778-4.8023415 4.8024673v63.2633057c0 2.6523895 2.1500778 4.8024673 4.8023415 4.8024673h48.0705032c2.6587906 0 4.8141632-2.1554947 4.8141632-4.8142853v-63.2396697c.0000001-2.6587906-2.1553725-4.8142853-4.8141631-4.8142853z" fill="#ededed"/><path d="m93.1848221 32.1097412h-49.9917069c-2.7582664 0-4.9942741 2.2360077-4.9942741 4.9944v65.7917175c0 2.7583923 2.2360077 4.9944 4.9942741 4.9944h49.9917068c2.7650528 0 5.0065689-2.2416382 5.0065689-5.006691v-65.7671355c.0000001-2.765049-2.241516-5.006691-5.0065688-5.006691z" fill="#feda6f"/><path d="m43.1931152 32.1097412c-2.7582664 0-4.9942741 2.2360077-4.9942741 4.9944v65.7917175c0 2.7583923 2.2360077 4.9944 4.9942741 4.9944h3.155365v-75.7805175z" fill="#fed35b"/><path d="m83.7492905 61.2771416h-.0000153c-.4480438 0-.8112564.3632278-.8112564.8112679v8.8106689h-1.4425125v-8.8106689c0-.44804-.3632126-.8112679-.8112564-.8112679h-.0128632c-.4480438 0-.8112488.3632278-.8112488.8112679v8.8106689h-1.4425201v-8.8106689c0-.44804-.3632126-.8112679-.8112488-.8112679h-.012886c-.4480438 0-.8112488.3632278-.8112488.8112679v8.8106689h-1.4425201v-8.8106689c0-.44804-.3632126-.8112679-.8112488-.8112679h-.0000153c-.4480438 0-.8112564.3632278-.8112564.8112679v8.7490234c0 1.8024521.9205475 3.4789734 2.4402008 4.4458618l1.1640778.7412643-.6441422 22.4945526c-.0452805 1.3495789.9636383 2.5504379 2.3116302 2.6299744 1.4631882.0864487 2.6628113-1.1010437 2.6143951-2.5440903l-.6470107-22.5804977 1.1639938-.7412033c1.5196686-.9668884 2.4402008-2.6434097 2.4402008-4.4458618v-8.7490234c0-.4480401-.3632125-.8112679-.8112487-.8112679z" fill="#344d5b"/><path d="m69.9960938 69.4581909c0-4.5183411-2.6941147-8.1811066-6.0175171-8.1811066-3.3233414 0-6.0174599 3.6627655-6.0174599 8.1811066 0 3.6383743 1.7481384 6.7181396 4.163784 7.7812729l-.6092911 21.279686c-.0452728 1.3495178.9636421 2.5503845 2.3116379 2.6300049 1.4631958.0864029 2.662796-1.1011124 2.6143799-2.5441742l-.6120758-21.3641357c2.4170837-1.0619889 4.1665421-4.1428986 4.1665421-7.7826539z" fill="#344d5b"/><ellipse cx="63.979" cy="68.717" fill="#293b44" rx="4.843" ry="6.584"/><path d="m57.281593 41.157661h27.958464v11.386807h-27.958464z" fill="#ededed"/></svg>